<svg xmlns="http://www.w3.org/2000/svg" viewBox="0 0 30 30.01"><defs><style>.cls-1{fill:#fff;}</style></defs><title>insta</title><g id="Layer_2" data-name="Layer 2"><g id="Layer_1-2" data-name="Layer 1"><path class="cls-1" d="M26.44,0H3.57A3.57,3.57,0,0,0,0,3.57V26.44A3.57,3.57,0,0,0,3.57,30H26.44A3.57,3.57,0,0,0,30,26.44V3.57A3.58,3.58,0,0,0,26.44,0ZM15,9.32A5.78,5.78,0,1,1,9.2,15.1,5.78,5.78,0,0,1,15,9.32ZM26.54,25.5a1.16,1.16,0,0,1-1.16,1.15H4.58A1.15,1.15,0,0,1,3.42,25.5V12.78H6a9.5,9.5,0,0,0-.3,2.32,9.24,9.24,0,0,0,18.49,0,9.46,9.46,0,0,0-.3-2.32h2.61V25.5Zm0-17.34a1.16,1.16,0,0,1-1.16,1.16H21.92a1.16,1.16,0,0,1-1.16-1.16V4.7a1.16,1.16,0,0,1,1.16-1.16h3.46A1.16,1.16,0,0,1,26.54,4.7Z"/></g></g></svg>