<svg xmlns="http://www.w3.org/2000/svg" viewBox="0 0 36.92 30"><defs><style>.cls-1{fill:#fff;}</style></defs><title>twitter</title><g id="Layer_2" data-name="Layer 2"><g id="Layer_1-2" data-name="Layer 1"><g id="Twitter_Icon" data-name="Twitter Icon"><path class="cls-1" d="M36.92,3.55a15.13,15.13,0,0,1-4.35,1.19A7.6,7.6,0,0,0,35.89.56a15.23,15.23,0,0,1-4.81,1.84A7.58,7.58,0,0,0,18.18,9.3,21.52,21.52,0,0,1,2.57,1.39,7.58,7.58,0,0,0,4.91,11.5a7.53,7.53,0,0,1-3.43-.95s0,.06,0,.1a7.58,7.58,0,0,0,6.08,7.43,7.62,7.62,0,0,1-3.42.13,7.58,7.58,0,0,0,7.07,5.26A15.2,15.2,0,0,1,1.81,26.7,14.9,14.9,0,0,1,0,26.6,21.43,21.43,0,0,0,11.61,30C25.54,30,33.16,18.46,33.16,8.45c0-.33,0-.66,0-1A15.39,15.39,0,0,0,36.92,3.55Z"/></g></g></g></svg>